<svg xmlns="http://www.w3.org/2000/svg" width="12" height="12"><path style="stroke:none;fill-rule:evenodd;fill:#fff;fill-opacity:1" d="M6.477 2.625a.375.375 0 0 0-.375-.375H1.125C.504 2.25 0 2.754 0 3.375v7.5C0 11.496.504 12 1.125 12h7.5c.621 0 1.125-.504 1.125-1.125V5.898a.375.375 0 0 0-.75 0v4.977a.375.375 0 0 1-.375.375h-7.5a.375.375 0 0 1-.375-.375v-7.5C.75 3.168.918 3 1.125 3h4.977a.375.375 0 0 0 .375-.375Zm0 0"/><path style="stroke:none;fill-rule:evenodd;fill:#fff;fill-opacity:1" d="M12 .375A.375.375 0 0 0 11.625 0h-3.75a.375.375 0 0 0 0 .75h2.844l-6.11 6.11a.373.373 0 0 0 0 .53.373.373 0 0 0 .532 0l6.109-6.109v2.844a.375.375 0 0 0 .75 0Zm0 0"/></svg>
