<?xml version="1.0" encoding="UTF-8" standalone="no"?><!DOCTYPE svg PUBLIC "-//W3C//DTD SVG 1.1//EN" "http://www.w3.org/Graphics/SVG/1.1/DTD/svg11.dtd"><svg width="100%" height="100%" viewBox="0 0 90 25" version="1.1" xmlns="http://www.w3.org/2000/svg" xmlns:xlink="http://www.w3.org/1999/xlink" xml:space="preserve" xmlns:serif="http://www.serif.com/" style="fill-rule:evenodd;clip-rule:evenodd;stroke-linejoin:round;stroke-miterlimit:2;"><rect x="0" y="0" width="45" height="25" style="fill:#555;"/><path d="M13.137,17.678l2.145,2.145l-0.577,0.576l-2.145,-2.144l0.577,-0.577Z" style="fill:#77b255;fill-rule:nonzero;"/><path d="M15.226,19.766l2.145,2.145l-0.577,0.577l-2.144,-2.145l0.576,-0.577Z" style="fill:#ffd983;fill-rule:nonzero;"/><path d="M15.171,16.423l2.145,2.145l-0.577,0.576l-2.145,-2.145l0.577,-0.576Z" style="fill:#ffac33;fill-rule:nonzero;"/><path d="M16.874,18.126l2.145,2.145l-0.577,0.577l-2.145,-2.145l0.577,-0.577Zm2.443,-5.85l2.144,2.145l-0.577,0.577l-2.144,-2.145l0.577,-0.577Z" style="fill:#ea596e;fill-rule:nonzero;"/><path d="M21.019,13.98l2.145,2.144l-0.577,0.577l-2.145,-2.144l0.577,-0.577Z" style="fill:#ffac33;fill-rule:nonzero;"/><path d="M20.606,10.26l2.145,2.145l-0.576,0.577l-2.145,-2.145l0.576,-0.577Z" style="fill:#77b255;fill-rule:nonzero;"/><path d="M22.673,12.326l2.145,2.145l-0.577,0.577l-2.145,-2.145l0.577,-0.577Z" style="fill:#ffd983;fill-rule:nonzero;"/><path d="M22.26,8.606l2.145,2.145l-0.577,0.577l-2.145,-2.145l0.577,-0.577Z" style="fill:#ffac33;fill-rule:nonzero;"/><path d="M24.327,10.673l2.145,2.145l-0.577,0.576l-2.144,-2.145l0.576,-0.576Zm2.165,-6.299l2.145,2.145l-0.577,0.577l-2.145,-2.145l0.577,-0.577Z" style="fill:#ea596e;fill-rule:nonzero;"/><path d="M28.559,6.441l2.145,2.145l-0.577,0.577l-2.145,-2.145l0.577,-0.577Z" style="fill:#ffac33;fill-rule:nonzero;"/><path d="M28.133,2.682l2.145,2.145l-0.577,0.577l-2.145,-2.145l0.577,-0.577Z" style="fill:#77b255;fill-rule:nonzero;"/><path d="M30.225,4.774l2.145,2.145l-0.577,0.577l-2.145,-2.145l0.577,-0.577Z" style="fill:#ffd983;fill-rule:nonzero;"/><path d="M26.826,1.782c-1.575,1.575 -1.625,3.841 -1.497,6.129c0.313,0.017 0.626,0.038 0.938,0.058c0.244,0.017 0.485,0.032 0.725,0.047c-0.124,-2.054 -0.125,-3.937 1.004,-5.065c0.454,-0.44 0.596,-1.033 0.279,-1.354c-0.334,-0.338 -0.964,-0.311 -1.449,0.185Z" style="fill:#9266cc;fill-rule:nonzero;"/><path d="M19.466,17.306l-0.095,-1.663c-0.017,-0.278 -0.037,-0.562 -0.047,-0.832c-0.185,-0.185 -1.541,-0.218 -1.658,-0.102c0.008,0.275 0.03,0.553 0.045,0.83c0.017,0.314 0.078,1.422 0.093,1.662c0.033,0.569 0.06,1.129 0.053,1.66c0.162,0.162 1.482,0.273 1.654,0.102c0.005,-0.553 -0.01,-1.106 -0.045,-1.657Z" style="fill:#3b88c3;fill-rule:nonzero;"/><path d="M19.513,18.962l-1.656,-0.101c-0.016,1.38 -0.24,2.59 -1.055,3.405c-0.155,0.155 -0.242,0.365 -0.242,0.584c0,0.454 0.373,0.827 0.827,0.827c0.219,0 0.429,-0.087 0.584,-0.242c1.515,-1.514 1.542,-4.484 1.541,-4.473Z" style="fill:#55acee;fill-rule:nonzero;"/><path d="M27.096,9.679c-0.313,-0.018 -0.627,-0.038 -0.939,-0.059c-0.243,-0.016 -0.485,-0.032 -0.724,-0.046c0.124,2.053 0.125,3.937 -1.004,5.065c-1.128,1.127 -3.008,1.128 -5.059,1.004c-0.241,-0.014 -1.349,-0.087 -1.66,-0.105c-2.292,-0.129 -4.561,-0.079 -6.137,1.498c-0.155,0.155 -0.242,0.366 -0.242,0.585c-0,0.453 0.373,0.826 0.826,0.826c0.219,0 0.43,-0.087 0.585,-0.242c1.128,-1.127 3.009,-1.129 5.061,-1.005c0.241,0.014 1.351,0.088 1.663,0.105c2.288,0.128 4.555,0.078 6.132,-1.497c1.575,-1.575 1.626,-3.841 1.498,-6.129Z" style="fill:#9266cc;fill-rule:nonzero;"/><path d="M27.096,9.679c-0.017,-0.313 -0.09,-1.423 -0.105,-1.663c-0.017,-0.277 -0.03,-0.555 -0.04,-0.832c-0.21,-0.013 -1.312,-0.083 -1.658,-0.102c0.008,0.275 0.02,0.552 0.035,0.829c0.018,0.313 0.091,1.423 0.105,1.663c0.035,0.571 0.057,1.127 0.051,1.66c0.208,0.013 1.309,0.082 1.653,0.101c0.006,-0.552 -0.007,-1.105 -0.041,-1.656Z" style="fill:#744eaa;fill-rule:nonzero;"/><path d="M33.488,6.791c-0.262,-0.272 -0.865,-0.375 -1.432,0.221c-1.128,1.128 -3.01,1.129 -5.065,1.004c-0.24,-0.014 -1.35,-0.088 -1.663,-0.105c-2.287,-0.128 -4.554,-0.077 -6.129,1.498c-1.384,1.384 -1.59,3.302 -1.533,5.3c0.346,0.019 1.45,0.089 1.658,0.101c-0.061,-1.722 0.071,-3.259 1.045,-4.232c1.128,-1.129 3.011,-1.129 5.065,-1.005c0.239,0.015 1.35,0.088 1.663,0.105c2.288,0.128 4.554,0.078 6.129,-1.497c0.553,-0.543 0.525,-1.117 0.262,-1.39Z" style="fill:#55acee;fill-rule:nonzero;"/><rect x="45" y="0.024" width="45" height="25" style="fill:#2e6f40;"/><text x="49.477px" y="16.35px" style="font-family:'Bebas-Regular', 'Bebas';font-size:11px;fill:#ddd;">BACK<tspan x="67.924px " y="16.35px ">-</tspan>End</text></svg>