<svg xmlns="http://www.w3.org/2000/svg" width="12" height="12" fill-rule="evenodd" fill="rgb(100%,100%,100%)" xmlns:v="https://vecta.io/nano"><path d="M6.477 2.625c0-.207-.168-.375-.375-.375H1.125C.504 2.25 0 2.754 0 3.375v7.5C0 11.496.504 12 1.125 12h7.5c.621 0 1.125-.504 1.125-1.125V5.898c0-.207-.168-.375-.375-.375S9 5.691 9 5.898v4.977c0 .207-.168.375-.375.375h-7.5c-.207 0-.375-.168-.375-.375v-7.5C.75 3.168.918 3 1.125 3h4.977c.207 0 .375-.168.375-.375zM12 .375C12 .168 11.832 0 11.625 0h-3.75C7.668 0 7.5.168 7.5.375s.168.375.375.375h2.844l-6.11 6.109c-.148.148-.148.383 0 .531s.383.148.531 0l6.109-6.109v2.844c0 .207.168.375.375.375S12 4.332 12 4.125zm0 0"/></svg>