<?xml version="1.0" encoding="UTF-8" standalone="no"?><!DOCTYPE svg PUBLIC "-//W3C//DTD SVG 1.1//EN" "http://www.w3.org/Graphics/SVG/1.1/DTD/svg11.dtd"><svg width="100%" height="100%" viewBox="0 0 90 25" version="1.1" xmlns="http://www.w3.org/2000/svg" xmlns:xlink="http://www.w3.org/1999/xlink" xml:space="preserve" xmlns:serif="http://www.serif.com/" style="fill-rule:evenodd;clip-rule:evenodd;stroke-linejoin:round;stroke-miterlimit:2;"><rect x="0" y="0" width="30" height="25" style="fill:#555;"/><rect x="30" y="0.024" width="60" height="25" style="fill:#09f;"/><g transform="matrix(15,0,0,15,87.4425,17.75)"></g><text x="32.558px" y="17.75px" style="font-family:'Bebas-Regular', 'Bebas';font-size:15px;fill:#ddd;">FRONT<tspan x="63.443px " y="17.75px ">-</tspan>END</text><clipPath id="_clip1"><rect id="cupcake-svgrepo-com.svg" x="3.75" y="1.25" width="22.5" height="22.5"/></clipPath><g clip-path="url(#_clip1)"><path d="M6.875,14.922c0,-0 0.993,3.579 1.25,5.301c0.29,1.944 2.232,3.482 6.875,3.482c4.643,0 6.585,-1.538 6.875,-3.482c0.257,-1.722 1.25,-5.301 1.25,-5.301l-16.25,-0Z" style="fill:#bbddf5;fill-rule:nonzero;"/><path d="M6.934,14.981c0.156,0.761 0.434,1.246 0.84,0.996c0.406,-0.25 1.031,-0.121 0.84,0.39c-0.176,0.469 0.605,0.684 0.937,0.41c0.318,-0.261 0.972,-0.55 1.035,0.039c0.059,0.547 0.73,0.694 1.035,0.293c0.313,-0.41 1.172,-0.246 1.328,0.254c0.157,0.5 0.997,0.43 1.231,0.078c0.222,-0.333 0.446,-0.553 0.82,-0.553l0,-0.013c0.375,0 0.598,0.233 0.82,0.566c0.234,0.352 1.074,0.422 1.231,-0.078c0.156,-0.5 1.015,-0.664 1.328,-0.254c0.305,0.401 0.976,0.254 1.035,-0.293c0.063,-0.589 0.717,-0.301 1.035,-0.038c0.332,0.273 1.113,0.058 0.937,-0.41c-0.192,-0.512 0.434,-0.641 0.84,-0.391c0.407,0.25 0.684,-0.234 0.84,-0.996l-16.132,-0Z" style="fill:#662113;fill-rule:nonzero;"/><path d="M24.375,13.106c0,-3.075 -4.207,-5.567 -9.396,-5.567c-5.189,0 -9.395,2.492 -9.395,5.567c-0,2.48 5.625,3.769 9.395,3.769c3.771,0 9.396,-1.25 9.396,-3.769Z" style="fill:#c1694f;fill-rule:nonzero;"/><path d="M15,23.438c-0.171,-0 -0.313,-0.142 -0.313,-0.313l0.001,-5.404c-0,-0.171 0.141,-0.312 0.312,-0.312c0.171,-0 0.313,0.141 0.313,0.312l-0,5.404c-0,0.171 -0.142,0.313 -0.313,0.313Zm-4.187,-0.793c-0.156,-0 -0.29,-0.118 -0.31,-0.273l-0.644,-4.988c-0.022,-0.17 0.1,-0.328 0.27,-0.351c0.014,-0.002 0.027,-0.003 0.041,-0.003c0.157,0 0.29,0.118 0.309,0.273l0.644,4.989c0.002,0.013 0.003,0.026 0.003,0.039c-0,0.172 -0.141,0.313 -0.313,0.314Zm1.987,0.61c-0.162,-0 -0.298,-0.126 -0.311,-0.287l-0.443,-5.326c-0,-0.008 -0.001,-0.017 -0.001,-0.025c0,-0.172 0.141,-0.313 0.313,-0.313c0.162,0 0.298,0.126 0.311,0.287l0.443,5.326c0.014,0.171 -0.115,0.323 -0.286,0.337l-0.026,0.001Zm-3.724,-1.901c-0.111,0 -0.208,-0.079 -0.23,-0.188l-0.937,-4.649c-0.003,-0.015 -0.005,-0.03 -0.005,-0.046c0,-0.111 0.079,-0.207 0.188,-0.229c0.124,-0.03 0.25,0.056 0.276,0.183l0.938,4.649c0.003,0.015 0.004,0.031 0.004,0.047c0,0.128 -0.105,0.233 -0.233,0.233c-0.001,0 -0.001,0 -0.001,0Zm10.062,1.22c-0,0 -0,0 -0.001,0c-0.171,0 -0.312,-0.141 -0.312,-0.312c-0,-0.015 0.001,-0.03 0.003,-0.045l0.706,-4.918c0.027,-0.168 0.185,-0.287 0.354,-0.265c0.153,0.022 0.268,0.155 0.268,0.31c0,0.015 -0.001,0.029 -0.003,0.044l-0.706,4.918c-0.022,0.153 -0.154,0.268 -0.309,0.268Zm-1.901,0.681l-0.026,-0.001c-0.171,-0.014 -0.3,-0.166 -0.286,-0.337l0.443,-5.326c0.013,-0.172 0.182,-0.296 0.336,-0.285c0.171,0.014 0.3,0.166 0.286,0.336l-0.442,5.326c-0.013,0.161 -0.15,0.287 -0.311,0.287Zm3.739,-1.875c0,0 -0,0 -0,0c-0.128,0 -0.234,-0.106 -0.234,-0.234c-0,-0.015 0.001,-0.03 0.004,-0.044l0.899,-4.675c0.021,-0.11 0.118,-0.19 0.23,-0.19c0.128,0 0.234,0.106 0.234,0.234c0,0.015 -0.001,0.03 -0.004,0.044l-0.899,4.674c-0.02,0.111 -0.118,0.191 -0.23,0.191Z" style="fill:#88c9f9;fill-rule:nonzero;"/><path d="M14.32,1.243c0,0 0.679,0.715 1.359,0.73c1.418,0.03 2.722,0.821 2.722,2.191c0,-0 3.288,-0 3.402,2.921c0,0 1.659,0.028 2.039,2.92c0.284,2.16 -1.898,5.142 -8.842,5.111c-6.122,-0.027 -9.254,-2.202 -8.843,-5.11c0.397,-2.8 2.722,-2.92 2.722,-2.92c-0,-0 -0.398,-3.652 4.08,-3.652c0,0 0.454,-1.46 1.361,-2.191Z" style="fill:#ffe8b6;fill-rule:nonzero;"/><path d="M14.944,7.815c1.835,-0.693 3.514,-1.947 3.458,-3.651c-0,-0.536 -0.205,-0.98 -0.533,-1.328c0.402,1.755 -2.281,3.75 -5.249,4.067c-3.713,0.395 -3.288,-1.795 -3.288,-1.795l-0.005,0.004c-0.551,0.96 -0.448,1.974 -0.448,1.974c0.566,1.49 3.485,1.703 6.065,0.729Z" style="fill:#ffcc4d;fill-rule:nonzero;"/><path d="M21.803,7.086c-0.004,-0.09 -0.019,-0.168 -0.028,-0.252c-0.073,-0.423 -0.283,-0.941 -0.484,-1.336c-0.119,-0.165 -0.25,-0.312 -0.394,-0.439c0.694,2.767 -3.476,6.094 -7.456,6.864c-5.187,1.004 -7.284,-1.916 -7.284,-1.916c-0.213,1.51 0.537,2.819 2.156,3.736c6.392,2.605 13.546,-3.81 13.49,-6.657Z" style="fill:#ffcc4d;fill-rule:nonzero;"/><path d="M9.181,10.126l-0.739,1.008c-0.203,0.276 -0.596,0.337 -0.873,0.135c-0.276,-0.203 -0.337,-0.596 -0.135,-0.873l0.738,-1.009c0.203,-0.276 0.597,-0.337 0.874,-0.135c0.277,0.203 0.338,0.596 0.135,0.874Z" style="fill:#dd2e44;fill-rule:nonzero;"/><path d="M13.084,6.367l-1.222,-0.262c-0.335,-0.073 -0.551,-0.407 -0.48,-0.742c0.072,-0.336 0.406,-0.552 0.742,-0.48l1.222,0.262c0.337,0.072 0.553,0.406 0.48,0.742c-0.072,0.335 -0.407,0.551 -0.742,0.48Z" style="fill:#55acee;fill-rule:nonzero;"/><path d="M14.019,10.108l0.821,0.943c0.226,0.26 0.198,0.656 -0.061,0.882c-0.259,0.224 -0.657,0.197 -0.882,-0.061l-0.821,-0.943c-0.224,-0.259 -0.196,-0.657 0.061,-0.882c0.26,-0.224 0.657,-0.197 0.882,0.061Z" style="fill:#77b255;fill-rule:nonzero;"/><path d="M18.983,8.437l-1.17,0.442c-0.321,0.12 -0.683,-0.044 -0.806,-0.364c-0.12,-0.321 0.044,-0.684 0.364,-0.806l1.17,-0.441c0.32,-0.121 0.683,0.043 0.805,0.363c0.12,0.321 -0.043,0.684 -0.364,0.806Z" style="fill:#f4900c;fill-rule:nonzero;"/><path d="M22.729,10.032l-0.625,1.082c-0.172,0.298 -0.556,0.401 -0.854,0.229c-0.296,-0.172 -0.399,-0.557 -0.229,-0.854l0.625,-1.082c0.172,-0.298 0.556,-0.401 0.854,-0.229c0.297,0.172 0.401,0.556 0.229,0.854Z" style="fill:#aa8dd8;fill-rule:nonzero;"/></g></svg>