<?xml version="1.0" encoding="UTF-8" standalone="no"?><!DOCTYPE svg PUBLIC "-//W3C//DTD SVG 1.1//EN" "http://www.w3.org/Graphics/SVG/1.1/DTD/svg11.dtd"><svg width="100%" height="100%" viewBox="0 0 90 25" version="1.1" xmlns="http://www.w3.org/2000/svg" xmlns:xlink="http://www.w3.org/1999/xlink" xml:space="preserve" xmlns:serif="http://www.serif.com/" style="fill-rule:evenodd;clip-rule:evenodd;stroke-linejoin:round;stroke-miterlimit:2;"><rect x="0" y="0" width="45" height="25" style="fill:#555;"/><clipPath id="_clip1"><rect id="cupcake-svgrepo-com.svg" x="11.262" y="1.262" width="22.476" height="22.476"/></clipPath><g clip-path="url(#_clip1)"><path d="M14.384,14.919c-0,0 0.992,3.576 1.248,5.296c0.29,1.942 2.23,3.478 6.868,3.478c4.638,-0 6.578,-1.537 6.868,-3.478c0.256,-1.72 1.248,-5.296 1.248,-5.296l-16.232,0Z" style="fill:#bbddf5;fill-rule:nonzero;"/><path d="M14.443,14.978c0.156,0.761 0.433,1.245 0.839,0.995c0.405,-0.25 1.03,-0.12 0.839,0.39c-0.176,0.469 0.605,0.683 0.936,0.41c0.318,-0.262 0.971,-0.55 1.034,0.039c0.059,0.546 0.729,0.693 1.034,0.292c0.312,-0.409 1.171,-0.246 1.327,0.254c0.156,0.499 0.995,0.429 1.229,0.078c0.222,-0.333 0.445,-0.553 0.819,-0.553l0,-0.013c0.375,0 0.597,0.233 0.819,0.566c0.234,0.351 1.073,0.421 1.229,-0.078c0.156,-0.5 1.015,-0.663 1.327,-0.254c0.305,0.401 0.975,0.254 1.034,-0.292c0.063,-0.589 0.716,-0.301 1.034,-0.039c0.331,0.273 1.112,0.059 0.936,-0.41c-0.191,-0.51 0.434,-0.64 0.839,-0.39c0.406,0.25 0.683,-0.234 0.839,-0.995l-16.114,-0Z" style="fill:#662113;fill-rule:nonzero;"/><path d="M31.865,13.105c-0,-3.071 -4.202,-5.56 -9.386,-5.56c-5.183,-0 -9.385,2.489 -9.385,5.56c-0,2.478 5.619,3.765 9.385,3.765c3.767,0 9.386,-1.248 9.386,-3.765Z" style="fill:#c1694f;fill-rule:nonzero;"/><path d="M22.5,23.426c-0.171,-0 -0.312,-0.141 -0.312,-0.313l-0,-5.397c-0,-0.172 0.141,-0.313 0.312,-0.313c0.171,0 0.312,0.141 0.312,0.313l0,5.397c0,0.172 -0.141,0.313 -0.312,0.313Zm-4.182,-0.792c-0.156,-0 -0.29,-0.117 -0.31,-0.272l-0.644,-4.984c-0.021,-0.169 0.1,-0.327 0.27,-0.35c0.014,-0.002 0.028,-0.003 0.042,-0.003c0.156,0 0.289,0.118 0.308,0.273l0.643,4.983c0.002,0.013 0.003,0.026 0.003,0.04c-0,0.171 -0.141,0.312 -0.312,0.313Zm1.984,0.609c-0.161,0 -0.297,-0.125 -0.311,-0.286l-0.442,-5.32c-0,-0.009 -0.001,-0.017 -0.001,-0.026c0,-0.171 0.141,-0.312 0.313,-0.312c0.161,0 0.298,0.126 0.311,0.287l0.442,5.32c0.014,0.17 -0.115,0.322 -0.285,0.336l-0.027,0.001Zm-3.72,-1.898c-0.111,-0 -0.207,-0.079 -0.229,-0.188l-0.937,-4.644c-0.003,-0.015 -0.004,-0.031 -0.004,-0.046c-0,-0.111 0.079,-0.207 0.187,-0.229c0.124,-0.03 0.25,0.056 0.276,0.183l0.937,4.643c0.003,0.016 0.005,0.032 0.005,0.047c-0,0.128 -0.106,0.234 -0.234,0.234c-0,-0 -0.001,-0 -0.001,-0Zm10.052,1.218c-0.001,0 -0.001,0 -0.001,0c-0.171,0 -0.312,-0.14 -0.312,-0.312c-0,-0.015 0.001,-0.029 0.003,-0.044l0.705,-4.913c0.027,-0.168 0.185,-0.286 0.354,-0.265c0.153,0.022 0.268,0.155 0.268,0.309c-0,0.015 -0.001,0.03 -0.003,0.045l-0.706,4.913c-0.022,0.152 -0.154,0.267 -0.308,0.267Zm-1.9,0.68l-0.026,-0.001c-0.17,-0.014 -0.299,-0.166 -0.285,-0.336l0.442,-5.32c0.014,-0.173 0.182,-0.296 0.336,-0.286c0.171,0.015 0.3,0.166 0.286,0.337l-0.442,5.32c-0.013,0.161 -0.149,0.286 -0.311,0.286Zm3.736,-1.873c-0,0 -0.001,0 -0.001,0c-0.128,0 -0.233,-0.105 -0.233,-0.233c-0,-0.015 0.001,-0.03 0.004,-0.044l0.898,-4.67c0.021,-0.11 0.118,-0.19 0.23,-0.19c0.128,0 0.233,0.106 0.233,0.234c0,0.015 -0.001,0.029 -0.004,0.044l-0.897,4.669c-0.021,0.11 -0.118,0.19 -0.23,0.19Z" style="fill:#88c9f9;fill-rule:nonzero;"/><path d="M21.821,1.255c-0,0 0.678,0.715 1.358,0.729c1.416,0.031 2.719,0.821 2.719,2.189c-0,-0 3.284,-0 3.398,2.918c-0,-0 1.657,0.028 2.037,2.917c0.283,2.157 -1.897,5.136 -8.833,5.105c-6.115,-0.026 -9.244,-2.2 -8.833,-5.104c0.396,-2.797 2.718,-2.918 2.718,-2.918c0,0 -0.397,-3.647 4.077,-3.647c-0,0 0.453,-1.459 1.359,-2.189Z" style="fill:#ffe8b6;fill-rule:nonzero;"/><path d="M22.444,7.82c1.833,-0.692 3.51,-1.945 3.454,-3.647c0,-0.535 -0.204,-0.979 -0.532,-1.326c0.402,1.753 -2.279,3.746 -5.243,4.062c-3.71,0.395 -3.285,-1.793 -3.285,-1.793l-0.004,0.004c-0.552,0.959 -0.448,1.972 -0.448,1.972c0.565,1.488 3.481,1.701 6.058,0.728Z" style="fill:#ffcc4d;fill-rule:nonzero;"/><path d="M29.296,7.091c-0.004,-0.089 -0.019,-0.167 -0.028,-0.25c-0.073,-0.423 -0.283,-0.941 -0.484,-1.335c-0.118,-0.166 -0.249,-0.312 -0.393,-0.439c0.692,2.764 -3.473,6.087 -7.448,6.857c-5.181,1.002 -7.276,-1.914 -7.276,-1.914c-0.213,1.508 0.536,2.815 2.153,3.731c6.385,2.603 13.531,-3.805 13.476,-6.65Z" style="fill:#ffcc4d;fill-rule:nonzero;"/><path d="M16.687,10.128l-0.737,1.008c-0.203,0.275 -0.597,0.336 -0.873,0.135c-0.276,-0.203 -0.336,-0.596 -0.135,-0.873l0.737,-1.008c0.203,-0.275 0.596,-0.336 0.873,-0.135c0.277,0.203 0.338,0.596 0.135,0.873Z" style="fill:#dd2e44;fill-rule:nonzero;"/><path d="M20.586,6.374l-1.221,-0.262c-0.334,-0.073 -0.55,-0.406 -0.479,-0.741c0.072,-0.336 0.406,-0.552 0.741,-0.48l1.221,0.262c0.336,0.072 0.552,0.406 0.48,0.741c-0.073,0.335 -0.407,0.551 -0.742,0.48Z" style="fill:#55acee;fill-rule:nonzero;"/><path d="M21.52,10.111l0.82,0.942c0.226,0.259 0.198,0.655 -0.061,0.881c-0.259,0.224 -0.656,0.196 -0.881,-0.061l-0.82,-0.943c-0.224,-0.258 -0.196,-0.655 0.062,-0.88c0.258,-0.224 0.655,-0.197 0.88,0.061Z" style="fill:#77b255;fill-rule:nonzero;"/><path d="M26.478,8.441l-1.168,0.442c-0.32,0.12 -0.683,-0.044 -0.805,-0.364c-0.12,-0.32 0.044,-0.683 0.364,-0.804l1.168,-0.442c0.32,-0.12 0.683,0.044 0.805,0.364c0.12,0.32 -0.044,0.682 -0.364,0.804Z" style="fill:#f4900c;fill-rule:nonzero;"/><path d="M30.22,10.035l-0.624,1.081c-0.172,0.297 -0.556,0.4 -0.853,0.228c-0.296,-0.172 -0.398,-0.556 -0.228,-0.852l0.624,-1.082c0.172,-0.297 0.556,-0.4 0.853,-0.228c0.297,0.171 0.4,0.555 0.228,0.853Z" style="fill:#aa8dd8;fill-rule:nonzero;"/></g><rect x="45" y="0.024" width="45" height="25" style="fill:#09f;"/><text x="47.376px" y="16.35px" style="font-family:'Bebas-Regular', 'Bebas';font-size:11px;fill:#ddd;">FRONT<tspan x="70.024px " y="16.35px ">-</tspan>End</text></svg>