<?xml version="1.0" encoding="UTF-8" standalone="no"?><!DOCTYPE svg PUBLIC "-//W3C//DTD SVG 1.1//EN" "http://www.w3.org/Graphics/SVG/1.1/DTD/svg11.dtd"><svg width="100%" height="100%" viewBox="0 0 90 25" version="1.1" xmlns="http://www.w3.org/2000/svg" xmlns:xlink="http://www.w3.org/1999/xlink" xml:space="preserve" xmlns:serif="http://www.serif.com/" style="fill-rule:evenodd;clip-rule:evenodd;stroke-linejoin:round;stroke-miterlimit:2;"><rect x="0" y="0" width="30" height="25" style="fill:#555;"/><path d="M26.25,23.75l0,-1.25c0,-2.057 -1.693,-3.75 -3.75,-3.75l-10,0c-2.057,0 -3.75,1.693 -3.75,3.75l0,1.25l17.5,0Z" style="fill:#e1e8ed;fill-rule:nonzero;"/><path d="M22.374,18.829c0,0.85 -2.181,1.522 -4.874,1.522c-2.692,-0 -4.874,-0.663 -4.874,-1.513c0,-0.039 0.01,-0.088 0.018,-0.088l-0.458,0l-0.441,0.062l0.003,0.637c0.071,1.503 2.616,2.12 5.753,2.12c3.123,-0 5.658,-0.631 5.749,-2.133l0.009,-0.609c-0,-0.001 -0.885,-0.036 -0.885,0.002Z" style="fill:#ea596e;fill-rule:nonzero;"/><path d="M17.5,16.645c-3.181,0 -5.759,0.962 -5.759,2.149c0,1.187 2.578,2.149 5.759,2.149c3.181,0 5.759,-0.962 5.759,-2.149c-0,-1.187 -2.578,-2.149 -5.759,-2.149" style="fill:#be1931;fill-rule:nonzero;"/><path d="M17.5,20.333c-2.692,0 -4.874,-0.69 -4.874,-1.54c-0,-0.849 2.182,-1.539 4.874,-1.539c2.692,-0 4.874,0.69 4.874,1.539c0,0.851 -2.182,1.54 -4.874,1.54" style="fill:#292f33;fill-rule:nonzero;"/><path d="M14.775,18.711c1.09,0.792 1.78,0.945 2.725,0.945c0.945,-0 1.634,-0.154 2.724,-0.945l0,-2.382l-5.45,-0l0,2.382l0.001,0Z" style="fill:#d5ab88;fill-rule:nonzero;"/><path d="M14.77,17.483c0.76,0.859 1.703,1.091 2.728,1.091c1.024,0 1.966,-0.233 2.726,-1.091l0,-2.182l-5.455,0l0,2.182l0.001,0Z" style="fill:#cc9b7a;fill-rule:nonzero;"/><path d="M13.403,11.21c-0.001,0.905 -0.459,1.639 -1.025,1.639c-0.566,-0 -1.024,-0.734 -1.024,-1.639c-0,-0.905 0.459,-1.639 1.024,-1.639c0.566,-0.001 1.024,0.733 1.024,1.639m10.244,0c-0,0.905 -0.459,1.639 -1.025,1.639c-0.565,-0 -1.024,-0.734 -1.024,-1.639c-0,-0.905 0.458,-1.639 1.024,-1.639c0.566,-0.001 1.025,0.733 1.025,1.639" style="fill:#d5ab88;fill-rule:nonzero;"/><path d="M12.173,11.849c0,-3.493 2.385,-6.325 5.327,-6.325c2.942,-0 5.326,2.832 5.326,6.325c0,3.493 -2.384,6.326 -5.326,6.326c-2.941,-0 -5.327,-2.832 -5.327,-6.326" style="fill:#d5ab88;fill-rule:nonzero;"/><path d="M17.5,16.126c-1.721,0 -2.25,-0.44 -2.338,-0.53c-0.081,-0.077 -0.128,-0.184 -0.128,-0.297c0,-0.224 0.185,-0.409 0.41,-0.409c0.105,-0 0.206,0.04 0.282,0.112c0.032,0.024 0.45,0.305 1.774,0.305c1.375,-0 1.773,-0.303 1.776,-0.306c0.075,-0.074 0.176,-0.116 0.281,-0.116c0.11,0 0.215,0.045 0.29,0.125c0.156,0.164 0.152,0.427 -0.009,0.586c-0.088,0.09 -0.617,0.53 -2.338,0.53" style="fill:#c1694f;fill-rule:nonzero;"/><path d="M17.5,3.425c3.53,-0 5.736,2.605 5.736,4.776c0,2.17 -0.441,3.039 -0.882,2.17l-0.883,-1.736c0,0 -2.647,0 -3.529,-0.869c-0,0 1.324,2.605 -1.324,0c0,0 0.441,1.737 -2.206,-0.434c-0,0 -1.324,0.869 -1.765,3.039c-0.123,0.603 -0.883,0 -0.883,-2.17c-0,-2.171 1.765,-4.776 5.736,-4.776" style="fill:#963b22;fill-rule:nonzero;"/><path d="M15,11.875c-0.344,0 -0.625,-0.281 -0.625,-0.625l0,-0.625c0,-0.344 0.281,-0.625 0.625,-0.625c0.344,0 0.625,0.281 0.625,0.625l0,0.625c0,0.344 -0.281,0.625 -0.625,0.625m5,0c-0.344,0 -0.625,-0.281 -0.625,-0.625l0,-0.625c0,-0.344 0.281,-0.625 0.625,-0.625c0.344,0 0.625,0.281 0.625,0.625l0,0.625c0,0.344 -0.281,0.625 -0.625,0.625" style="fill:#662113;fill-rule:nonzero;"/><path d="M17.969,13.594l-0.938,-0c-0.258,-0 -0.469,-0.211 -0.469,-0.469c0,-0.258 0.211,-0.469 0.469,-0.469l0.938,0c0.258,0 0.468,0.211 0.468,0.469c0,0.258 -0.21,0.469 -0.468,0.469" style="fill:#c1694f;fill-rule:nonzero;"/><path d="M24.375,21.875l0,1.875l1.875,0l0,-1.25c0,-0.213 -0.022,-0.421 -0.056,-0.625l-1.819,0Z" style="fill:#55acee;fill-rule:nonzero;"/><rect x="25" y="22.5" width="1.25" height="1.25" style="fill:#ffcc4d;fill-rule:nonzero;"/><path d="M18.752,23.75c-0.748,-3.216 -3.779,-5.625 -7.41,-5.625c-3.631,0 -6.661,2.409 -7.41,5.625l14.82,0Z" style="fill:#e1e8ed;fill-rule:nonzero;"/><path d="M17.918,23.75c-0.733,-2.79 -3.395,-4.861 -6.576,-4.861c-3.181,-0 -5.843,2.071 -6.576,4.861l13.152,0Z" style="fill:#292f33;fill-rule:nonzero;"/><path d="M17.274,23.75c-0.718,-2.461 -3.098,-4.271 -5.932,-4.271c-2.833,0 -5.214,1.81 -5.931,4.271l11.863,0Z" style="fill:#ffac33;fill-rule:nonzero;"/><path d="M15.122,23.156l0.064,-0.04c0.48,-0.292 0.58,-0.961 0.188,-1.364c-0.294,-0.302 -0.622,-0.568 -0.979,-0.792c-0.349,-0.217 -0.724,-0.39 -1.115,-0.517c-0.517,-0.17 -1.069,0.145 -1.166,0.683c-0.075,0.412 0.14,0.841 0.534,0.985c0.531,0.194 1.008,0.51 1.395,0.921c0.276,0.295 0.733,0.334 1.079,0.124" style="fill:#ffdc5d;fill-rule:nonzero;"/><path d="M7.715,10.164l-0.964,-0.357l-0.375,-1.375c-0.049,-0.181 -0.215,-0.307 -0.402,-0.307c-0.187,-0 -0.353,0.126 -0.402,0.307l-0.375,1.375l-0.964,0.357c-0.164,0.059 -0.274,0.216 -0.274,0.39c0,0.175 0.11,0.331 0.274,0.391l0.959,0.355l0.378,1.509c0.047,0.184 0.214,0.314 0.404,0.314c0.19,0 0.357,-0.13 0.404,-0.314l0.378,-1.508l0.959,-0.355c0.163,-0.061 0.272,-0.217 0.272,-0.391c-0,-0.175 -0.108,-0.331 -0.272,-0.391" style="fill:#9266cc;fill-rule:nonzero;"/><path d="M10.8,4.146l-1.631,-0.603l-0.604,-1.632c-0.1,-0.27 -0.359,-0.451 -0.647,-0.451c-0.288,0 -0.547,0.181 -0.647,0.451l-0.604,1.632l-1.63,0.603c-0.27,0.1 -0.45,0.359 -0.45,0.647c-0,0.288 0.18,0.547 0.449,0.647l1.631,0.604l0.604,1.631c0.101,0.269 0.359,0.448 0.646,0.448c0.288,-0 0.546,-0.179 0.647,-0.448l0.604,-1.631l1.631,-0.604c0.27,-0.101 0.449,-0.359 0.449,-0.647c0,-0.287 -0.179,-0.546 -0.448,-0.647" style="fill:#5dadec;fill-rule:nonzero;"/><rect x="30" y="0.024" width="60" height="25" style="fill:#6200ea;"/><g transform="matrix(14,0,0,14,86.936,17.4)"></g><text x="33.064px" y="17.4px" style="font-family:'Bebas-Regular', 'Bebas';font-size:14px;fill:#ddd;">Full<tspan x="54.176px " y="17.4px ">-</tspan>st<tspan x="68.862px " y="17.4px ">a</tspan>ck</text></svg>